<?xml version="1.0" encoding="utf-8"?>
<!-- Generator: Adobe Illustrator 21.0.2, SVG Export Plug-In . SVG Version: 6.00 Build 0)  -->
<svg version="1.1" id="Layer_1" xmlns="http://www.w3.org/2000/svg" xmlns:xlink="http://www.w3.org/1999/xlink" x="0px" y="0px"
	 viewBox="0 0 50 26.5" enable-background="new 0 0 50 26.5" xml:space="preserve">
<g>
	<path fill="#F1ECC8" d="M31.6,23.8c1.4-0.1,2.8-0.5,3.8-1.5c1-1,1.5-2.4,1-3.8c0,0,0-0.1-0.1-0.1c1.2-1.2,1.6-3,0.7-4.5
		c0.7-0.8,1.2-1.9,1.3-3.1c0.4,0,0.8,0,1.1,0c1.3,0,2.5-0.4,2.9-1.7c0-0.1,0-0.2-0.1-0.2c0-1-0.7-1.8-1.5-2.3c1.7,0.2,3.4,0,5.1-0.1
		c1.2-0.1,2.7-0.2,3.4-1.2c0,0,0.1,0,0.1,0c0.6-0.8,0.4-1.8-0.2-2.6c-1-1.2-2.7-1.2-4.1-1.3c-4.2-0.3-8.5-0.7-12.7-0.6
		c-4,0.2-7.9,1-11.4,2.9c-2,1.1-3.9,2.4-5.7,3.7c-1.7,1.2-3.4,2.4-5.1,3.5C10,10.2,9.7,9.6,9.3,8.9c0-0.1-0.1-0.1-0.1-0.1
		c0-0.1-0.1-0.1-0.2-0.1C7.6,8.9,6.4,9.1,5.1,9.2c-1.3,0-2.6-0.1-3.9-0.1c-0.3,0-0.4,0.5-0.1,0.6C3.6,10,6.7,10.1,9,9.2c0,0,0,0,0,0
		c0.3,0.7,0.5,1.5,0.6,2.2c0,0,0,0,0,0.1c0.3,1.9,0.3,3.8,0.4,5.7c0,2.7-0.1,5.4-1,7.9c0,0,0,0,0,0.1c-1.4-0.5-3.1-0.5-4.5-0.5
		c-1.4,0-3.1,0.1-4.4,0.7c-0.2,0.1-0.1,0.4,0.1,0.5c1.5,0,3-0.4,4.5-0.5c1.5-0.1,3,0.2,4.5,0.1c0,0,0.1,0,0.1,0c0.2,0,0.3,0,0.4-0.2
		c0.2-0.5,0.3-1.1,0.5-1.6c0,0,0.1,0.1,0.1,0.1c2-0.1,3.9,0.3,5.8,0.6c2,0.4,4,0.7,6.1,1.1c3.2,0.5,6.8,0.8,9.4-1.3
		C31.7,24,31.7,23.9,31.6,23.8z M36,18.8C36,18.8,36,18.8,36,18.8c0.6,2.4-1.7,4.1-3.9,4.4c-0.8,0.1-1.5,0.2-2.3,0.1
		c0.4-0.3,0.6-0.8,0.7-1.3c0.1-0.6-0.1-1.2-0.6-1.6C32,20.5,34.4,20.1,36,18.8z M26,16.6c1.1-0.2,2.1-0.4,3.2-0.2c0,0,0.1,0,0.1,0
		c1.6,0.2,0.6,2.5,0.1,3.4c0,0,0,0.1,0,0.1c-0.4,0-0.9-0.1-1.3-0.2c-0.8-0.2-1.6-0.6-2.1-1.2c-0.4-0.5-0.4-1.1-0.2-1.6
		c0,0,0.1,0,0.1,0C26.1,16.8,26.1,16.7,26,16.6z M25.7,16.2c-0.2-0.2-0.4-0.3-0.5-0.5c0,0,0,0,0,0c0.2-0.3,0.4-0.5,0.6-0.8
		c0.3,0.2,0.6,0.5,0.9,0.7c0.1,0,0.1,0,0.1-0.1c-0.3-0.3-0.6-0.5-0.9-0.7c0.2-0.3,0.3-0.5,0.4-0.8c0,0.3,0.1,0.7,0.3,1
		c0.2,0.3,0.4,0.5,0.6,0.7C26.6,15.5,26.1,15.7,25.7,16.2z M26.8,13c1.2-0.1,2.5-0.4,3.6-0.1c1.5,0.4,0.9,2.1,0.6,3.2
		c-0.4,0-0.9,0-1.3-0.1c-0.3-0.1-0.6-0.1-0.9-0.1c-0.5-0.1-0.9-0.2-1.3-0.5C26.7,14.9,26.3,13.8,26.8,13z M27.4,15.8
		c0.1,0,0.2,0.1,0.2,0.1c-0.4,0-0.9,0.1-1.2,0.2C26.7,16,27,15.9,27.4,15.8C27.4,15.9,27.4,15.9,27.4,15.8z M29.7,20.4
		c0,0,0,0.1,0,0.1C30,21,30.1,21.5,30,22c-0.1,0.5-0.4,0.8-0.8,1.2c0,0,0,0.1-0.1,0.1c-0.1,0-0.1,0-0.2,0c-0.6-0.1-1.2-0.2-1.7-0.5
		c-1.1-0.7-1.5-2.1-0.2-2.8c0,0,0.1-0.1,0.1-0.1C28,20.2,28.9,20.4,29.7,20.4z M35.2,16.3c0-0.1-0.1-0.2-0.2-0.4
		c-0.1-0.1-0.1-0.3-0.1-0.4c0.7-0.3,1.3-0.7,1.8-1.3c1.7,3.1-2.5,5.3-5,5.6c-0.6,0.1-1.3,0.1-1.9,0c0.5-0.8,1.3-2.6,0.7-3.5
		c0.1,0,0.3,0,0.4,0c1.3,0,2.6-0.2,3.7-0.7c0,0.3,0.1,0.7,0.4,0.8C35,16.7,35.2,16.5,35.2,16.3z M36.7,13.7c-0.1,0-0.1,0.1-0.1,0.2
		c-0.8,1-1.9,1.7-3.2,2c-0.6,0.1-1.2,0.2-1.8,0.3c0.5-0.8,0.7-2.6,0-3.3c-0.4-0.4-1.5-0.4-2-0.4c-0.8,0-1.6,0-2.4,0.2
		c0.1-0.1,0.1-0.1,0.2-0.2c0,0,0,0,0-0.1c1.1-0.1,2.2-0.3,3.3-0.7c0.2-0.1,0.4-0.1,0.6-0.2c0.2,0,0.3,0,0.5-0.1c0.3,0,0.6,0,0.9,0.1
		c-0.1,0.5-0.1,1,0.3,1.3c0.1,0.1,0.3,0,0.3-0.1c-0.1-0.4-0.2-0.7-0.1-1.2c0-0.2,0.4-1.1,0.7-0.9c0.1,0,0.1,0,0.1-0.1
		c1.4,0.1,2.8,0.2,4.1,0.2C37.8,11.9,37.3,12.9,36.7,13.7z M26.6,12.8C26.6,12.8,26.6,12.8,26.6,12.8c-0.1,0.1-0.1,0.1-0.2,0.2
		c0-0.2,0-0.3,0-0.5c0.2,0,0.4,0,0.6,0C26.9,12.5,26.8,12.6,26.6,12.8z M32,11.2c0.3-0.1,0.6-0.3,0.9-0.4c-0.1,0.1-0.1,0.2-0.2,0.3
		c0,0.1-0.1,0.2-0.1,0.3C32.5,11.3,32.2,11.3,32,11.2z M42,9.1C42,9.1,42,9.1,42,9.1c-0.1,0.2-0.1,0.4-0.2,0.5
		c-0.8,0.1-1.6,0-2.4-0.2c-0.6-0.2-1.1-0.5-1-1.2c0.1-0.4,0.5-1.5,1-1.6C40.7,6.9,42,7.6,42,9.1z M20.3,24.6c-1.8-0.3-3.7-0.6-5.5-1
		c-1.5-0.3-3-0.5-4.6-0.1c0,0,0,0,0,0c0.1-0.5,0.2-1,0.3-1.5c0.2,0.2,0.4,0.3,0.6,0.5c0.1,0.1,0.2,0,0.1-0.1
		c-0.2-0.2-0.4-0.3-0.6-0.5c0,0-0.1,0-0.1-0.1c0.1-0.5,0.1-1,0.1-1.5c0.4,0.3,0.9,0.6,1.4,0.8c0.1,0,0.2-0.1,0.1-0.1
		c-0.5-0.2-1-0.5-1.4-0.9c0-0.6,0.1-1.1,0.1-1.7c0.4,0.4,0.8,0.7,1.3,0.9c0.1,0,0.1-0.1,0.1-0.1c-0.5-0.2-1-0.6-1.4-0.9
		c0-0.4,0-0.8,0-1.2c0-0.2,0-0.4,0-0.7c0.4,0.3,0.9,0.6,1.4,0.9c0.1,0,0.1-0.1,0.1-0.1c-0.5-0.3-1-0.5-1.4-0.9c0,0,0,0-0.1,0
		c0-0.5,0-0.9,0-1.4c0.4,0.3,0.8,0.5,1.2,0.7c0.1,0,0.1-0.1,0.1-0.1c-0.4-0.2-0.9-0.5-1.3-0.7c0-0.5,0-1.1-0.1-1.6
		c0.5,0.4,1.1,0.8,1.7,1.1c0.1,0,0.1-0.1,0.1-0.1c-0.6-0.3-1.2-0.7-1.7-1.2c0-0.4-0.1-0.9-0.2-1.3c0.1,0.1,0.3,0.1,0.4,0.2
		c0.5,0.3,1,0.5,1.6,0.7c0.1,0,0.1-0.1,0.1-0.1c-0.4-0.2-0.8-0.4-1.2-0.6c-0.3-0.2-0.6-0.4-0.9-0.5c0,0,0-0.1,0-0.1
		c0.2-0.1,0.5-0.3,0.7-0.4c0.6,0.2,1.2,0.5,1.8,0.8c0.1,0,0.1-0.1,0.1-0.1c-0.6-0.3-1.1-0.5-1.7-0.7c0.3-0.2,0.5-0.3,0.8-0.5
		c0.3,0.2,0.7,0.3,1,0.4c0.1,0,0.1-0.1,0-0.1c-0.3-0.1-0.7-0.2-1-0.4c0.3-0.2,0.6-0.4,0.9-0.6c0,0,0,0,0,0c0.3,0.1,0.7,0.2,1,0.4
		c0.1,0,0.1-0.1,0-0.1c-0.3-0.1-0.6-0.2-1-0.3c0.3-0.2,0.6-0.4,0.9-0.6c0,0,0,0,0,0c0,0,0,0,0,0c0.3,0.1,0.7,0.2,1,0.3
		c0.1,0,0.1-0.1,0-0.1c-0.3-0.1-0.6-0.2-0.9-0.3c0.3-0.2,0.5-0.4,0.8-0.5c0,0,0,0,0,0c0.4,0.2,0.9,0.4,1.3,0.6
		c0.1,0,0.1-0.1,0.1-0.1c-0.4-0.2-0.9-0.4-1.3-0.6c0.3-0.2,0.6-0.5,0.9-0.7c0.3,0.1,0.7,0.3,1,0.4c0.1,0,0.1-0.1,0-0.1
		c-0.3-0.1-0.7-0.3-1-0.4c1.1-0.8,2.2-1.6,3.4-2.3c3.2-2,6.7-3.4,10.5-3.8c3.4-0.4,6.7-0.2,10.1,0.1c1.7,0.1,3.5,0.2,5.2,0.4
		c1.6,0.1,5.2,0.6,4.2,3c-0.4,0.6-1.1,0.9-1.9,1.2c-0.2-0.2-0.5-0.4-0.8-0.6c0,0-0.1,0,0,0.1c0.3,0.2,0.5,0.4,0.7,0.6
		c-0.3,0.1-0.7,0.2-1,0.2C46,6,45.6,5.8,45.2,5.6c0,0-0.1,0,0,0.1c0.4,0.2,0.7,0.4,1,0.6c-0.4,0.1-0.8,0.1-1.1,0.1
		c-0.5-0.4-1.1-0.7-1.7-1c0,0-0.1,0,0,0.1c0.5,0.3,1,0.7,1.5,0.9c-0.2,0-0.4,0-0.6,0c-0.5,0-0.9,0-1.4,0C42.2,6,41.6,5.7,41,5.2
		c0,0-0.1,0,0,0.1c0.5,0.4,1,0.8,1.6,1.1c-0.6,0-1.1-0.1-1.7-0.2c-0.8-0.5-1.7-1-2.6-1.4c0,0-0.1,0,0,0.1c0.8,0.4,1.6,0.8,2.3,1.3
		c-0.4,0-0.8-0.1-1.2-0.1c0,0,0,0,0,0c-0.4-0.1-0.7-0.2-1.1-0.3c-1.1-0.6-2.2-1.2-3.3-1.7c0,0,0,0,0,0c1,0.5,1.9,1.1,2.9,1.6
		c-1.3-0.3-2.7-0.5-4.1-0.6c-0.4,0-0.8-0.1-1.2-0.1c-0.8-0.4-1.6-0.8-2.3-1.2c0,0-0.1,0,0,0.1c0.7,0.4,1.3,0.7,2,1.1
		c-0.7,0-1.3-0.1-2-0.1c-0.8-0.4-1.6-0.7-2.4-1.1c0,0-0.1,0,0,0c0.7,0.3,1.5,0.7,2.2,1c-0.6,0-1.2,0-1.8,0c-0.9-0.3-1.8-0.6-2.8-0.9
		c0,0,0,0,0,0.1c0.8,0.3,1.7,0.6,2.6,0.9c-0.1,0-0.2,0-0.3,0c-0.5,0-1.1,0-1.6,0.1c-0.6-0.2-1.2-0.4-1.8-0.6c0,0-0.1,0,0,0.1
		c0.5,0.2,1,0.4,1.6,0.6c-1.4,0.1-2.9,0.3-4,0.9c-0.1,0,0,0.1,0,0.1C25,5.6,28,5.2,31.1,5.3c0,0,0,0,0.1,0c0,0,0,0,0.1,0
		c0.3,0,0.5,0,0.8,0c0.5,0,0.9,0.1,1.4,0.1c0.1,0,0.2,0.1,0.2,0.1c0.1,0,0.1,0,0.1-0.1C34.9,5.7,36,5.8,37.1,6
		c0.5,0.1,1.2,0.2,1.8,0.4c-0.8,0.4-1.2,2-0.9,2.7c0.3,0.5,0.9,0.6,1.4,0.7c0.5,0.2,1,0.3,1.6,0.3c-1,0.5-2.6,0.3-3.6,0.3
		c-1.2-0.1-2.5-0.2-3.7-0.1c0.2-0.2,0.4-0.5,0.5-0.8c0-0.1-0.1-0.1-0.1,0c-0.9,1.2-3,1.8-4.4,2.2C28.2,12,26.8,12,25.2,12
		c-0.2,0-0.2,0.3,0,0.4c0.3,0,0.7,0.1,1,0.1c-0.8,2.9-2.8,4.4-5.5,5.7c-0.2,0.1,0,0.4,0.2,0.3c0.4-0.1,0.7-0.3,1.1-0.5
		c0.4,0.3,0.9,0.6,1.4,0.8c0.1,0,0.1-0.1,0-0.1c-0.4-0.3-0.9-0.5-1.3-0.8c0.3-0.2,0.6-0.3,0.9-0.5c0.4,0.3,0.8,0.6,1.3,0.8
		c0.1,0,0.1-0.1,0-0.1c-0.5-0.2-0.9-0.5-1.3-0.8c0.3-0.2,0.5-0.3,0.7-0.5c0.3,0.2,0.6,0.4,0.9,0.6c0,0,0.1,0,0.1-0.1
		c-0.3-0.3-0.6-0.5-0.9-0.6c0.5-0.4,0.9-0.7,1.3-1.2c0,0,0,0,0,0c0.2,0.2,0.4,0.4,0.5,0.5c-0.1,0.2-0.2,0.4-0.3,0.7l-0.7-0.6
		c0,0-0.1,0,0,0c0.2,0.2,0.5,0.4,0.7,0.6c0,0,0,0,0,0c-0.1,0.3-0.1,0.6,0,0.9c0.2,0.9,0.8,1.5,1.5,1.9c-1.1,0.4-1.3,1.7-0.7,2.7
		c0.9,1.4,2.9,1.4,4.4,1.4c0.2,0,0.4,0,0.6,0C27.8,25.9,24,25.2,20.3,24.6z"/>
	<path fill="#F1ECC8" d="M7.3,23.6c0.6-0.5,0.2-1.3-0.4-1.5c-0.1-0.4-0.8-0.5-1.2-0.3c-0.6,0.3-0.9,1.1-0.4,1.6
		C5.7,24,6.7,24.1,7.3,23.6z M6.8,23.3c-0.3,0.1-0.8,0.1-1-0.1C5.1,22.6,6,22,6.5,22.1c0,0.1,0,0.1,0,0.2C6.8,22.6,7.4,23,6.8,23.3z
		"/>
	<path fill="#F1ECC8" d="M6.9,22.8c-0.1-0.1-0.2-0.1-0.4-0.2c0,0,0,0,0-0.1c0-0.1-0.1-0.2-0.1-0.1c0,0,0,0,0,0.1
		c-0.2-0.1-0.4-0.1-0.5-0.2c-0.1,0-0.2,0.2-0.1,0.2c0.2,0.1,0.3,0.1,0.5,0.2c-0.1,0.1-0.1,0.3-0.2,0.4c0,0.1,0.1,0.1,0.2,0.1
		c0.1-0.1,0.1-0.3,0.2-0.4c0.1,0,0.3,0.1,0.4,0.1C7,23.1,7,22.9,6.9,22.8z"/>
	<path fill="#F1ECC8" d="M22.5,19c-0.4-0.2-0.8-0.4-1.2-0.7c0,0-0.1,0,0,0.1C21.7,18.6,22,18.9,22.5,19C22.5,19.1,22.5,19,22.5,19z"
		/>
</g>
<g display="none">
	<path display="inline" fill="#F1ECC8" d="M38,0.8c-4.6,1.7-8.8,4-13.2,6c-4.7,2.2-9.3,4.5-14,6.8c-0.3,0.1-0.2,0.7,0.1,0.7
		c3.1,0.4,6.1,1.1,9.1,1.8c0.1,3.1,0,6.1,0,9.2c0,0.4,0.5,0.5,0.7,0.2c1.6-2.3,3.2-4.6,4.9-6.8c2.4,1.4,4.8,2.9,7,4.5
		c0.2,0.1,0.5,0,0.6-0.2c0.7-3.7,1.4-7.2,2.5-10.8c1-3.6,2-7.2,2.8-10.9C38.5,1,38.3,0.7,38,0.8z M22.6,16.3
		c-0.1,0.1-0.2,0.2-0.2,0.3c-0.1,0.3-0.3,0.6-0.4,1.1c-0.5,1.9-0.8,3.8-1.3,5.6c0-2.5,0-4.9,0-7.4c4.7-4.1,9.5-8.1,14.3-12
		c-2.9,2.9-5.8,5.7-8.7,8.6c-0.9,0.9-1.8,1.8-2.7,2.6C23.2,15.6,22.9,15.9,22.6,16.3z M36,2.4c-5.3,4.2-10.6,8.5-15.7,13
		c-2.7-0.6-5.3-1.2-8.1-1.7c4.1-2,8.2-4.1,12.4-6.1C28.5,5.9,32.2,4,36,2.4z M21.4,23.2c0.4-1.6,0.8-3.3,1.2-5
		c0.1-0.4,0.2-0.8,0.3-1.2c0.7,0.4,1.4,0.9,2.1,1.3C23.7,19.9,22.5,21.6,21.4,23.2z M34.9,11.9c-1,3.4-1.7,6.8-2.4,10.3
		c-3-2.1-6.2-3.9-9.3-5.8c0,0,0-0.1,0.1-0.1c0.4-0.4,0.8-0.8,1.2-1.2c0.9-0.9,1.8-1.8,2.7-2.7c3.4-3.3,6.8-6.7,10.2-10
		C36.7,5.6,35.8,8.8,34.9,11.9z"/>
	<path display="inline" fill="#F1ECC8" d="M17.7,13.5c0.9-0.5,1.9-1,2.8-1.6c0.3-0.2,0-0.7-0.3-0.5c-0.9,0.5-1.9,1-2.8,1.6
		C17,13.2,17.3,13.7,17.7,13.5z"/>
	<path display="inline" fill="#F1ECC8" d="M20.3,12.7c-0.4,0.2-0.9,0.5-1.3,0.7c-0.3,0.2,0,0.7,0.3,0.5c0.4-0.2,0.9-0.5,1.3-0.7
		C21,13.1,20.7,12.6,20.3,12.7z"/>
</g>
</svg>
