<?xml version="1.0" encoding="utf-8"?>
<!-- Generator: Adobe Illustrator 21.0.2, SVG Export Plug-In . SVG Version: 6.00 Build 0)  -->
<svg version="1.1" id="Layer_1" xmlns="http://www.w3.org/2000/svg" xmlns:xlink="http://www.w3.org/1999/xlink" x="0px" y="0px"
	 viewBox="0 0 900 402" enable-background="new 0 0 900 402" xml:space="preserve">
<path fill="#DBD9D9" d="M4.5,34.2c0.2-7,0.6-13.9,0.4-20.9c-0.1-5,1.7-6.2,6.5-6.2c52-0.1,104-0.4,156-0.7
	c50-0.3,100.1-0.5,150.1-0.8c4.5,0,9.1,0,13.6,0c0.1,0.6,0.3,1.3,0.4,1.9c-24.1,7.8-48.2,15.6-72.3,23.4
	c-20.6,6.5-41.4,12.6-61.9,19.6c-14.4,4.9-28.7,9.1-44.3,8.3c-14.1-0.8-28.2,0-42.3,0c-3.3,0-6.8-0.1-6.7,4.8
	c0.2,7.4-0.6,14.8,0.4,22.1c-2.2,17.7-1.1,35.5-0.9,53.2c0,3.2,2.9,3.4,5.3,3.4c11.5,0,23-0.1,34.5-0.2c3.5,0.2,6.9,0.4,10.4,0.5
	c3.6,0.1,4.1,1.3,2.2,4.4c-4.1,6.6-7.9,13.4-11.8,20.1c-3.4,3.4-5.4,7.6-7.6,11.7c-2.4,4.5-5.2,8.2-10.8,8.6c-6-1.5-12,0-18-0.1
	c-3.2-0.1-3.9,2.4-3.8,4.8c0,7.1,0.2,14.1,0.3,21.2c-0.2,0.7-0.5,1.4-0.7,2.2c0,0,0.1-0.1,0.1-0.1c-0.1,38.9-0.2,77.8-0.3,116.8
	c0,14.3,0,14.3-14.5,14.5c-1.9,0-3.9,0.3-5.8,0.4c-23.2-0.1-46.5-0.1-69.7-0.2c-9.4,0-9.4,0-9.4-9.1c0.3-93.3,0.6-186.5,1-279.8
	C5.1,50.2,6,42.2,4.5,34.2z"/>
<path fill="#DBD9D9" d="M707.2,94.6c0.1-0.6,0.2-1.3,0.3-1.9c0.6-6-2.3-13.1,1.4-17.8c3.4-4.4,10.6-4.4,16.1-6.2
	c20.2-6.6,40.7-12.7,60.9-19.4c5.5-1.8,6.3,0,6.3,4.8c0,24.8,0.1,49.6,0.3,74.4c0.1,15.5,0.2,15.4,14.3,11.3
	c16.3-4.7,32.9-5.9,49.7-2.9c24.1,4.3,38.4,21.5,38.5,45.9c0.1,43.5,0.2,87,0.3,130.5c0,8.3,0,16.5,0.3,24.8c0.2,4.7-1.8,6.1-6.1,6
	c-5.4-0.1-10.8,0.2-16.3,0.4c-18.7-0.1-37.3-0.2-56-0.3c-9,0-9,0-9.1-9c-0.2-48.4-0.4-96.9-0.6-145.3c0-2.6,0.2-5.3-0.3-7.8
	c-0.9-4.7-4.1-5.8-8.2-3.1c-4.3,2.8-4.5,7-4.4,11.5c0.2,48,0.3,96,0.5,144c0,9.3,0,9.3-9.3,10.1c-4.1-0.8-8.2-0.7-12.4-0.1
	c-18.3-0.1-36.5-0.3-54.8-0.4c-10.3-0.1-10.4,0-10.4-10.2c0-77,0-153.9-0.1-230.9C708.1,100.1,708.5,97.2,707.2,94.6z"/>
<path fill="#DBD9D9" d="M694,372.1c-0.1,6.3-0.1,12.5-0.2,18.8c0,0,0.1-0.3,0.1-0.3c0.1,3.5-1.8,4.9-5.1,5.2
	c-5.8,0.5-11.5,1.4-17.3,2.1c-32.9,1.4-65.6-0.3-98-6.7c-31.9-6.4-62.9-15.4-90-34.4c-21.8-15.3-34.2-35.1-33.8-62.9
	c0.7-44.8,0-89.6,0-134.4c0-7.8-0.1-15.7,0.1-23.5c0.1-5.5-1.3-8.4-7.7-7.8c-7.3,0.7-14.8,0.4-22.2,0.4
	c-34.1,0.1-68.2,0.2-102.3,0.3c-15,0-29.9,0-45.8,0c1.8-3,4-3.2,5.8-3.9c23.7-8.6,47.4-17.1,71.1-25.7c5.8-2.1,11.6-3.1,17.8-3.1
	c27.4-0.1,54.8-0.3,82.2-1c9.5-0.2,17.7-5.4,26.6-8.2c19-6.1,38-12.5,56.8-19.1c5.1-1.8,6.7-0.7,6.4,4.6c-0.3,4.8,0.5,9.6,0,14.3
	c-0.6,6.3,2.2,7.9,8,7.7c11.3-0.4,22.6-0.3,33.9-0.4c32.2-0.2,64.3-0.4,96.5-0.6c1.5,0,3,0.2,5,1.7c-21.5,8-42.9,16.1-64.4,24.1
	c-14.1,6.6-28.9,9.6-44.6,8.4c-8.6-0.6-17.3,0.2-25.9,0c-4.7-0.1-7.5,1.6-7.6,6.5c0.1-0.1,0.2-0.1,0.3-0.1c0,0.2,0,0.4,0,0.6
	c-0.2,7.7,0,15.4-0.4,23.2c-0.4,7.2-1.4,14.6,0.8,21.8c-0.2,2.2-0.4,4.3-0.4,6.5c-0.4,29.5,1,59.1,0.4,88.6
	c-0.2,11.2-1.5,22.8,2.5,33.6c7.3,19.9,22.2,32.5,42,38.6c28.7,8.9,58.1,8.9,87.7,4.5c4.8,0.1,9.3-1,13.9-2.2
	c6.1-1.2,7.8,1.7,7.5,7.4C693.5,361.8,693.9,367,694,372.1z"/>
<path fill="#DBD9D9" d="M429.7,338.3c-5,0-9.8,0.9-14.4,2.6c-14.2,1.6-28.3,3.8-42.7,4.1c-30.6,0.6-60.2-3.4-88.1-16.6
	c-13.6-6.4-22-17-22.3-32.4c-0.5-28.4-0.1-56.9-0.5-85.3c-0.2-12.1,1.2-24.3-0.7-36.3c1.4-5.3,2.3-10.8,5.3-15.6
	c9.8-10.9,22.7-14.3,36.6-15.7c22.7-2.3,45.4-3.1,68.2-2.1c16.8,0.7,33.9,0.8,48.9,10.3l-0.1,0c0.5,0.4,1,0.8,1.5,1.2l0,0
	c0.1,0.9,0.5,1.2,1.4,1.2l0,0c1.6,2.7,3.8,4.9,6.4,6.6l0,0c0.9,3.2,2.8,5.7,5.1,8l0-0.1c0.3,2.8,1.1,5.4,2.9,7.6
	c2.3,14.8,0.1,29.7,0.7,44.6c0.3,9.1-3.1,15.3-10.6,19.8c-4.7,1.4-8.8,3.7-12.6,6.7c-1.4,0.5-3,0.7-4.3,1.4
	c-18.7,9.2-37.3,18.5-56,27.8c-10.1,5-10.9,9.2-3.8,18.7c3.3,5.2,8.6,7.3,14.2,8c23.3,2.7,44.1-5.4,64.1-16.2c8.1-2.2,8.2-2.2,8.3,7
	c0.2,11.2-0.1,22.5,0.5,33.7C438,333.5,436.3,337.4,429.7,338.3z M341.3,202.9c-0.1,0-0.2,0-0.3,0c0,5.2,0,10.4,0,15.6
	c0,3.7,1.3,5,5.3,3.5c5-1.9,8-4.4,7.7-10.3c-0.4-8.2-0.1-16.5,0-24.7c0-4.1-0.8-7.6-5.7-7.9c-5-0.3-6.9,3.2-7.1,7.5
	C341.1,192,341.3,197.5,341.3,202.9z"/>
<path fill="#DBD9D9" d="M246.4,345.9c-6.1,0.1-12.1,0.1-18.2,0.2c-19.4,0.2-38.8,0.3-58.2,0.5c-5.2-1.3-4.1-5.5-4.1-9
	c0.3-77.1,0.6-154.2,0.9-231.3c0-2.6,0.5-5.2-0.6-7.7c0.9-5.5,0.8-11,0.2-16.6c1.1-3,1.9-5.8,5.8-7.1c23.4-7.3,46.7-14.9,70-22.4
	c2.4-0.8,5-2.1,6.9,1c-1.2,2.2-1,4.6-1,7c-0.1,18.3-0.4,36.5-0.1,54.8c0.2,13-0.9,26,0.8,39c-0.1,0.1-0.3,0.3-0.3,0.4
	c0.1,0.3,0.3,0.6,0.4,0.9c-0.1,1.1-0.2,2.2-0.3,3.2c-1.1,3.5-0.9,7.1,0,10.6c-0.5,3.4-0.7,6.8,0.2,10.2
	c-0.2,52.5-0.4,105.1-0.6,157.6C248.3,340.3,249,343.5,246.4,345.9z"/>
<path fill="#DBD9D9" d="M629.4,137.6c18.7-0.6,37.1,2.6,55.6,4c7,0.6,8.9,4.3,8.6,11.2c-0.6,11.9-0.1,23.9-0.1,35.8
	c0,7.5-0.1,7.5-6.7,4.4c-4-4.5-8.9-7.6-14.8-9c-6.4-3.6-13.5-4-20.6-4.2c-6-0.2-8.9,2.9-9.1,8.5c-0.2,6.7,0,13.3,0,20
	c-0.2,0.6-0.5,1.2-0.5,1.9c0.1,25.1,0.1,50.2,0.4,75.4c0.1,6.1,3.7,10.3,9.7,12.5c11.8,4.3,22.9,2.6,33.8-3c7.8-2.7,7.9-2.7,7.9,6
	c0.1,10.4-0.2,20.9,0.3,31.3c0.2,5.5-1.6,8.7-6.9,9.8c-5.3-0.1-10.3,1.1-15.3,2.7c-2.6,0.3-5.2,0.5-7.8,0.8
	c-27.2,3.4-54,1.4-79.4-9.4c-21.9-9.3-33.5-15-32.7-47.2c0.9-38.9,0-77.9-0.2-116.8c0.9-5.8,3.5-10.9,6.4-15.9
	c7.4-8.8,16.6-13.8,28.2-15.1C600.6,139.7,615,138.3,629.4,137.6z"/>
</svg>
